<svg width="24" height="24" viewBox="0 0 24 24" fill="none" xmlns="http://www.w3.org/2000/svg">
<g clip-path="url(#clip0_821_310)">
<path d="M17.4999 21.0039C20.5375 21.0039 22.9999 18.5415 22.9999 15.5039C22.9999 13.2603 21.832 11.0895 20.0888 10.6706C19.4164 10.509 18.8809 9.64614 18.996 8.66107C19.15 7.34259 20.3423 6.01051 22.7031 4.96078C23.2287 4.72705 23.0086 3.93632 22.4378 4.00778C16.2852 4.77807 12.0205 8.78914 12 14.4641C11.9999 18.3669 14.3057 21.0039 17.4999 21.0039Z" fill="#102B32"/>
<path d="M5.49993 21.0039C8.53749 21.0039 10.9999 18.5415 10.9999 15.5039C10.9999 13.2603 9.83198 11.0895 8.0888 10.6706C7.4164 10.509 6.8809 9.64614 6.99596 8.66107C7.14997 7.34259 8.34229 6.01051 10.7031 4.96078C11.2287 4.72705 11.0086 3.93632 10.4378 4.00778C4.28525 4.77807 0.0204611 8.78914 5.73497e-07 14.4641C-7.34577e-05 18.3669 2.30572 21.0039 5.49993 21.0039Z" fill="#102B32"/>
</g>
<defs>
<clipPath id="clip0_821_310">
<rect width="24" height="24" fill="white" transform="matrix(1 8.74228e-08 8.74228e-08 -1 0 24.0039)"/>
</clipPath>
</defs>
</svg>
