<svg width="64" height="64" viewBox="0 0 64 64" fill="none" xmlns="http://www.w3.org/2000/svg">
<g clip-path="url(#clip0_856_222)">
<path d="M14.1838 38.6737L11.956 46.9902L3.81363 47.1625C1.38025 42.6491 0 37.4852 0 31.9977C0 26.6914 1.2905 21.6874 3.578 17.2812H3.57975L10.8288 18.6102L14.0043 25.8157C13.3396 27.7534 12.9774 29.8334 12.9774 31.9977C12.9776 34.3467 13.4031 36.5974 14.1838 38.6737Z" fill="#FBBB00"/>
<path d="M63.4405 26.0234C63.808 27.9592 63.9996 29.9583 63.9996 32.0014C63.9996 34.2924 63.7588 36.5272 63.2999 38.6828C61.7421 46.0182 57.6718 52.4234 52.0331 56.9562L52.0314 56.9544L42.9009 56.4886L41.6086 48.4217C45.3501 46.2274 48.2741 42.7936 49.8144 38.6828H32.7031V26.0234H50.064H63.4405Z" fill="#518EF8"/>
<path d="M52.0325 56.9527L52.0342 56.9544C46.5503 61.3623 39.5841 63.9997 32.0008 63.9997C19.8145 63.9997 9.21933 57.1883 3.81445 47.1645L14.1846 38.6758C16.887 45.888 23.8443 51.0222 32.0008 51.0222C35.5067 51.0222 38.7912 50.0744 41.6096 48.4199L52.0325 56.9527Z" fill="#28B446"/>
<path d="M52.4256 7.367L42.059 15.854C39.1421 14.0308 35.6941 12.9775 32.0001 12.9775C23.659 12.9775 16.5715 18.3471 14.0045 25.818L3.57987 17.2835H3.57812C8.90387 7.01538 19.6326 0 32.0001 0C39.7645 0 46.8836 2.76575 52.4256 7.367Z" fill="#F14336"/>
</g>
<defs>
<clipPath id="clip0_856_222">
<rect width="64" height="64" fill="white"/>
</clipPath>
</defs>
</svg>
