<svg width="44" height="44" viewBox="0 0 44 44" fill="none" xmlns="http://www.w3.org/2000/svg">
<path d="M33.4402 4.83984H10.5602C10.0327 4.85433 9.51603 4.99274 9.05194 5.24389C8.58786 5.49505 8.18939 5.85188 7.88876 6.28556L2.16876 14.2056C1.74402 14.8058 1.5319 15.5306 1.56607 16.2651C1.60023 16.9996 1.87871 17.7017 2.35733 18.2598L19.5173 38.0284C19.8111 38.407 20.1876 38.7133 20.6179 38.9241C21.0482 39.1348 21.521 39.2444 22.0002 39.2444C22.4793 39.2444 22.9522 39.1348 23.3825 38.9241C23.8128 38.7133 24.1893 38.407 24.483 38.0284L41.643 18.2598C42.1217 17.7017 42.4001 16.9996 42.4343 16.2651C42.4685 15.5306 42.2564 14.8058 41.8316 14.2056L36.1116 6.28556C35.811 5.85188 35.4125 5.49505 34.9484 5.24389C34.4843 4.99274 33.9677 4.85433 33.4402 4.83984V4.83984Z" stroke="#102B32" stroke-width="1.5" stroke-linecap="round" stroke-linejoin="round"/>
<path d="M20.3658 4.80859L12.6973 16.6886L22.0001 39.16" stroke="#102B32" stroke-width="1.5" stroke-linecap="round" stroke-linejoin="round"/>
<path d="M23.7286 4.80859L31.3657 16.6886L22 39.16" stroke="#102B32" stroke-width="1.5" stroke-linecap="round" stroke-linejoin="round"/>
<path d="M1.63477 16.6885H42.3662" stroke="#102B32" stroke-width="1.5" stroke-linecap="round" stroke-linejoin="round"/>
</svg>
