<svg width="50" height="50" viewBox="0 0 50 50" fill="none" xmlns="http://www.w3.org/2000/svg">
<path d="M25 47.8216C27.345 47.8216 29.6671 47.3597 31.8336 46.4623C34.0002 45.5649 35.9687 44.2496 37.6269 42.5914C39.2851 40.9332 40.6004 38.9647 41.4979 36.7981C42.3953 34.6316 42.8571 32.3095 42.8571 29.9645V20.0359C42.8574 15.6491 41.2428 11.4156 38.3214 8.14307" stroke="#102B32" stroke-width="1.5" stroke-linecap="round" stroke-linejoin="round"/>
<path d="M7.14258 24V29.9643C7.14138 33.4796 8.17777 36.9171 10.1218 39.8459C12.0659 42.7747 14.8312 45.0646 18.0712 46.4286" stroke="#102B32" stroke-width="1.5" stroke-linecap="round" stroke-linejoin="round"/>
<path d="M33.9286 4.57156C29.8272 2.20367 24.9531 1.56198 20.3786 2.78765C15.8041 4.01333 11.9038 7.00598 9.53571 11.1073C8.56064 12.7913 7.87266 14.6259 7.5 16.5359" stroke="#102B32" stroke-width="1.5" stroke-linecap="round" stroke-linejoin="round"/>
<path d="M23.1426 12.5358C24.4561 12.2631 25.8142 12.2887 27.1165 12.6107C28.4189 12.9327 29.6323 13.543 30.6674 14.3964C31.7025 15.2499 32.5329 16.3248 33.0973 17.5419C33.6616 18.7589 33.9456 20.0872 33.9283 21.4286V27.1786" stroke="#102B32" stroke-width="1.5" stroke-linecap="round" stroke-linejoin="round"/>
<path d="M31.6429 34.6789C30.4277 36.0324 28.8281 36.9826 27.0581 37.4021C25.2882 37.8216 23.4323 37.6905 21.7389 37.0264C20.0454 36.3622 18.5953 35.1966 17.5824 33.6857C16.5696 32.1747 16.0424 30.3905 16.0715 28.5717V21.4289C16.0647 20.2022 16.3077 18.9871 16.7857 17.8574" stroke="#102B32" stroke-width="1.5" stroke-linecap="round" stroke-linejoin="round"/>
<path d="M25 21.8218V27.7861" stroke="#102B32" stroke-width="1.5" stroke-linecap="round" stroke-linejoin="round"/>
</svg>
