<svg width="44" height="44" viewBox="0 0 44 44" fill="none" xmlns="http://www.w3.org/2000/svg">
<path d="M22 31.4912V34.6655" stroke="#102B32" stroke-width="1.5" stroke-linecap="round" stroke-linejoin="round"/>
<path d="M22 15.7456V18.6999" stroke="#102B32" stroke-width="1.5" stroke-linecap="round" stroke-linejoin="round"/>
<path d="M21.9997 42.397C32.9997 42.397 40.8569 38.4999 40.8569 29.8256C40.8569 20.397 36.1426 14.1113 26.714 9.39705L30.4226 4.61991C30.611 4.30647 30.7132 3.9488 30.7188 3.58314C30.7244 3.21748 30.6333 2.85683 30.4546 2.53776C30.2759 2.21868 30.016 1.95251 29.7013 1.76624C29.3866 1.57996 29.0283 1.48019 28.6626 1.47705H15.3369C14.9712 1.48019 14.6128 1.57996 14.2981 1.76624C13.9834 1.95251 13.7235 2.21868 13.5449 2.53776C13.3662 2.85683 13.275 3.21748 13.2806 3.58314C13.2863 3.9488 13.3885 4.30647 13.5769 4.61991L17.2854 9.42848C7.85686 14.1742 3.14258 20.4599 3.14258 29.8885C3.14258 38.4999 10.9997 42.397 21.9997 42.397Z" stroke="#102B32" stroke-width="1.5" stroke-linecap="round" stroke-linejoin="round"/>
<path d="M18.8569 30.0455C19.2404 30.5007 19.723 30.862 20.2678 31.1017C20.8126 31.3415 21.4051 31.4532 21.9998 31.4284C22.9087 31.4904 23.8063 31.1975 24.5037 30.6114C25.2012 30.0253 25.6443 29.1916 25.7398 28.2855C25.6443 27.3795 25.2012 26.5458 24.5037 25.9597C23.8063 25.3736 22.9087 25.0807 21.9998 25.1427C21.0908 25.2046 20.1933 24.9118 19.4958 24.3257C18.7983 23.7396 18.3553 22.9058 18.2598 21.9998C18.3476 21.0906 18.7885 20.2521 19.4878 19.6645C20.1871 19.0768 21.089 18.7869 21.9998 18.857C22.584 18.8212 23.1688 18.9154 23.7123 19.1328C24.2557 19.3502 24.7442 19.6853 25.1426 20.1141" stroke="#102B32" stroke-width="1.5" stroke-linecap="round" stroke-linejoin="round"/>
</svg>
