<svg width="50" height="50" viewBox="0 0 50 50" fill="none" xmlns="http://www.w3.org/2000/svg">
<path d="M46.1079 19.6427H3.89358C1.89358 19.6427 1.03644 17.4641 2.60786 16.4284L23.715 2.60696C24.1047 2.37772 24.5486 2.25684 25.0007 2.25684C25.4528 2.25684 25.8967 2.37772 26.2864 2.60696L47.3936 16.4284C48.965 17.4641 48.1079 19.6427 46.1079 19.6427Z" stroke="#102B32" stroke-width="1.5" stroke-linecap="round" stroke-linejoin="round"/>
<path d="M46.429 39.2856H3.57185C2.58562 39.2856 1.78613 40.0851 1.78613 41.0714V46.4285C1.78613 47.4147 2.58562 48.2142 3.57185 48.2142H46.429C47.4152 48.2142 48.2147 47.4147 48.2147 46.4285V41.0714C48.2147 40.0851 47.4152 39.2856 46.429 39.2856Z" stroke="#102B32" stroke-width="1.5" stroke-linecap="round" stroke-linejoin="round"/>
<path d="M7.14355 19.6426V39.2854" stroke="#102B32" stroke-width="1.5" stroke-linecap="round" stroke-linejoin="round"/>
<path d="M16.0723 19.6426V39.2854" stroke="#102B32" stroke-width="1.5" stroke-linecap="round" stroke-linejoin="round"/>
<path d="M25 19.6426V39.2854" stroke="#102B32" stroke-width="1.5" stroke-linecap="round" stroke-linejoin="round"/>
<path d="M33.9287 19.6426V39.2854" stroke="#102B32" stroke-width="1.5" stroke-linecap="round" stroke-linejoin="round"/>
<path d="M42.8574 19.6426V39.2854" stroke="#102B32" stroke-width="1.5" stroke-linecap="round" stroke-linejoin="round"/>
</svg>
