<svg width="44" height="44" viewBox="0 0 44 44" fill="none" xmlns="http://www.w3.org/2000/svg">
<g clip-path="url(#clip0_335_16336)">
<path d="M21.9999 17.2856C33.2822 17.2856 42.4284 13.7678 42.4284 9.42843C42.4284 5.08905 33.2822 1.57129 21.9999 1.57129C10.7175 1.57129 1.57129 5.08905 1.57129 9.42843C1.57129 13.7678 10.7175 17.2856 21.9999 17.2856Z" stroke="#102B32" stroke-width="1.5" stroke-linecap="round" stroke-linejoin="round"/>
<path d="M1.57129 9.42822V34.5711C1.57129 38.9082 10.717 42.4282 21.9999 42.4282C33.2827 42.4282 42.4284 38.9082 42.4284 34.5711V9.42822" stroke="#102B32" stroke-width="1.5" stroke-linecap="round" stroke-linejoin="round"/>
<path d="M42.4284 22C42.4284 26.3371 33.2827 29.8571 21.9999 29.8571C10.717 29.8571 1.57129 26.3371 1.57129 22" stroke="#102B32" stroke-width="1.5" stroke-linecap="round" stroke-linejoin="round"/>
</g>
<defs>
<clipPath id="clip0_335_16336">
<rect width="44" height="44" fill="white"/>
</clipPath>
</defs>
</svg>
