<svg width="40" height="40" viewBox="0 0 40 40" fill="none" xmlns="http://www.w3.org/2000/svg">
<g clip-path="url(#clip0_883_178)">
<path d="M33.5706 28.5725C34.5595 28.5725 35.5262 28.8658 36.3484 29.4152C37.1707 29.9646 37.8116 30.7455 38.19 31.6591C38.5684 32.5728 38.6674 33.5781 38.4745 34.548C38.2816 35.5179 37.8054 36.4088 37.1061 37.1081C36.4069 37.8073 35.516 38.2835 34.546 38.4765C33.5761 38.6694 32.5708 38.5704 31.6572 38.1919C30.7435 37.8135 29.9627 37.1726 29.4132 36.3504C28.8638 35.5282 28.5706 34.5615 28.5706 33.5725V6.42969C28.5706 5.44078 28.8638 4.47408 29.4132 3.65184C29.9627 2.82959 30.7435 2.18873 31.6572 1.81029C32.5708 1.43185 33.5761 1.33284 34.546 1.52576C35.516 1.71869 36.4069 2.19489 37.1061 2.89416C37.8054 3.59342 38.2816 4.48433 38.4745 5.45424C38.6674 6.42414 38.5684 7.42948 38.19 8.34311C37.8116 9.25674 37.1707 10.0376 36.3484 10.587C35.5262 11.1364 34.5595 11.4297 33.5706 11.4297H6.42774C5.43883 11.4297 4.47213 11.1364 3.64989 10.587C2.82764 10.0376 2.18678 9.25674 1.80834 8.34311C1.4299 7.42948 1.33088 6.42414 1.52381 5.45424C1.71674 4.48433 2.19294 3.59342 2.8922 2.89416C3.59147 2.19489 4.48238 1.71869 5.45229 1.52576C6.42219 1.33284 7.42752 1.43185 8.34115 1.81029C9.25478 2.18873 10.0357 2.82959 10.5851 3.65184C11.1345 4.47408 11.4277 5.44078 11.4277 6.42969V33.5725C11.4277 34.5615 11.1345 35.5282 10.5851 36.3504C10.0357 37.1726 9.25478 37.8135 8.34115 38.1919C7.42752 38.5704 6.42219 38.6694 5.45229 38.4765C4.48238 38.2835 3.59147 37.8073 2.8922 37.1081C2.19294 36.4088 1.71674 35.5179 1.52381 34.548C1.33088 33.5781 1.4299 32.5728 1.80834 31.6591C2.18678 30.7455 2.82764 29.9646 3.64989 29.4152C4.47213 28.8658 5.43883 28.5725 6.42774 28.5725H33.5706Z" stroke="#DFF39E" stroke-width="1.5" stroke-linecap="round" stroke-linejoin="round"/>
</g>
<defs>
<clipPath id="clip0_883_178">
<rect width="40" height="40" fill="white"/>
</clipPath>
</defs>
</svg>
