<svg width="100" height="100" viewBox="0 0 100 100" fill="none" xmlns="http://www.w3.org/2000/svg">
<g opacity="0.1">
<path d="M60.7148 67.8567C62.6092 67.8567 64.4261 67.1042 65.7656 65.7646C67.1052 64.4251 67.8577 62.6083 67.8577 60.7139" stroke="white" stroke-width="1.5" stroke-linecap="round" stroke-linejoin="round"/>
<path d="M32.1406 67.8574H42.8549" stroke="white" stroke-width="1.5" stroke-linecap="round" stroke-linejoin="round"/>
<path d="M67.8555 32.1426V42.8569" stroke="white" stroke-width="1.5" stroke-linecap="round" stroke-linejoin="round"/>
<path d="M39.2835 32.1426C37.3891 32.1426 35.5723 32.8951 34.2327 34.2347C32.8932 35.5742 32.1406 37.391 32.1406 39.2854" stroke="white" stroke-width="1.5" stroke-linecap="round" stroke-linejoin="round"/>
<path d="M3.57031 10.7141C3.57031 8.81974 4.32286 7.00293 5.66241 5.66338C7.00195 4.32384 8.81877 3.57129 10.7132 3.57129H60.7132C62.6076 3.57129 64.4244 4.32384 65.7639 5.66338C67.1035 7.00293 67.856 8.81974 67.856 10.7141V32.1427H89.2846C91.179 32.1427 92.9958 32.8953 94.3354 34.2348C95.6749 35.5744 96.4275 37.3912 96.4275 39.2856V89.2856C96.4275 91.18 95.6749 92.9968 94.3354 94.3363C92.9958 95.6759 91.179 96.4284 89.2846 96.4284H39.2846C37.3902 96.4284 35.5734 95.6759 34.2338 94.3363C32.8943 92.9968 32.1417 91.18 32.1417 89.2856V67.857H10.7132C8.81877 67.857 7.00195 67.1045 5.66241 65.7649C4.32286 64.4254 3.57031 62.6085 3.57031 60.7141V10.7141Z" stroke="white" stroke-width="1.5" stroke-linecap="round" stroke-linejoin="round"/>
<path d="M57.1406 32.1426H67.8549" stroke="white" stroke-width="1.5" stroke-linecap="round" stroke-linejoin="round"/>
<path d="M32.1406 57.1426V67.8569" stroke="white" stroke-width="1.5" stroke-linecap="round" stroke-linejoin="round"/>
</g>
</svg>
