<svg width="50" height="50" viewBox="0 0 50 50" fill="none" xmlns="http://www.w3.org/2000/svg">
<path d="M41.0709 7.14648H8.92801C4.98312 7.14648 1.78516 10.3445 1.78516 14.2893V35.7179C1.78516 39.6628 4.98312 42.8608 8.92801 42.8608H41.0709C45.0158 42.8608 48.2137 39.6628 48.2137 35.7179V14.2893C48.2137 10.3445 45.0158 7.14648 41.0709 7.14648Z" stroke="#102B32" stroke-width="2" stroke-linecap="round" stroke-linejoin="round"/>
<path d="M18.9635 33.2893V18.2893C18.956 18.0361 19.0178 17.7856 19.1421 17.5648C19.2664 17.3441 19.4486 17.1614 19.6691 17.0365C19.8895 16.9116 20.1398 16.8492 20.3931 16.856C20.6463 16.8628 20.8929 16.9385 21.1064 17.075L33.9635 24.575C34.1783 24.7011 34.3565 24.8811 34.4802 25.0972C34.604 25.3134 34.6691 25.5581 34.6691 25.8072C34.6691 26.0562 34.604 26.301 34.4802 26.5171C34.3565 26.7332 34.1783 26.9133 33.9635 27.0393L21.1064 34.5393C20.8882 34.6652 20.6407 34.7313 20.3888 34.7307C20.137 34.7302 19.8897 34.663 19.6722 34.5361C19.4546 34.4092 19.2745 34.2271 19.15 34.0081C19.0256 33.7891 18.9612 33.5412 18.9635 33.2893V33.2893Z" stroke="#102B32" stroke-width="2" stroke-linecap="round" stroke-linejoin="round"/>
</svg>
