<svg width="24" height="24" viewBox="0 0 24 24" fill="none" xmlns="http://www.w3.org/2000/svg">
<path d="M2.10938 4.0625H21.8906C22.7819 4.0625 23.5 4.78868 23.5 5.67188V18.3281C23.5 19.2202 22.7725 19.9375 21.8906 19.9375H2.10938C1.22577 19.9375 0.5 19.2172 0.5 18.3281V5.67188C0.5 4.78752 1.22097 4.0625 2.10938 4.0625ZM15.167 12.6406L14.1318 13.6709L14.1309 13.6719C13.562 14.2406 12.8065 14.5537 12 14.5537C11.1936 14.5537 10.4374 14.2412 9.86719 13.6709L9.86621 13.6699L8.83301 12.6406L8.48047 12.29L8.12793 12.6406L2.05371 18.6768L1.19336 19.5312H22.8066L21.9463 18.6768L15.8721 12.6406L15.5195 12.29L15.167 12.6406ZM0.90625 19.2432L1.75879 18.3965L7.83594 12.3584L8.19238 12.0039L7.83594 11.6494L1.75879 5.60449L0.90625 4.75684V19.2432ZM22.2412 5.60449L16.1641 11.6494L15.8076 12.0039L16.1641 12.3584L22.2412 18.3965L23.0938 19.2432V4.75684L22.2412 5.60449ZM2.05176 5.32324C2.64699 5.91534 9.97884 13.2083 10.1543 13.3828C10.6475 13.8756 11.3041 14.1475 12 14.1475C12.6956 14.1475 13.3516 13.8754 13.8438 13.3838C14.0999 13.129 21.5173 5.75193 21.9482 5.32324L22.8066 4.46875H1.19336L2.05176 5.32324Z" stroke="#102B32"/>
</svg>
