<svg width="24" height="24" viewBox="0 0 24 24" fill="none" xmlns="http://www.w3.org/2000/svg">
<g clip-path="url(#clip0_676_1680)">
<mask id="mask0_676_1680" style="mask-type:luminance" maskUnits="userSpaceOnUse" x="0" y="0" width="24" height="24">
<path d="M24 0H0V24H24V0Z" fill="white"/>
</mask>
<g mask="url(#mask0_676_1680)">
<mask id="mask1_676_1680" style="mask-type:luminance" maskUnits="userSpaceOnUse" x="0" y="0" width="24" height="24">
<path d="M24 0H0V24H24V0Z" fill="white"/>
</mask>
<g mask="url(#mask1_676_1680)">
<mask id="mask2_676_1680" style="mask-type:luminance" maskUnits="userSpaceOnUse" x="0" y="0" width="24" height="24">
<path d="M24 0H0V24H24V0Z" fill="white"/>
</mask>
<g mask="url(#mask2_676_1680)">
<path d="M18.9677 14.8676C18.4764 14.356 17.8838 14.0825 17.2556 14.0825C16.6326 14.0825 16.0349 14.3509 15.5232 14.8625L13.9226 16.4582C13.7909 16.3872 13.6592 16.3214 13.5326 16.2555C13.3502 16.1643 13.178 16.0782 13.0311 15.987C11.5317 15.0348 10.1691 13.7937 8.86229 12.188C8.22912 11.3877 7.80363 10.714 7.49465 10.0302C7.91 9.65028 8.29497 9.25518 8.66981 8.87528C8.81163 8.73345 8.95347 8.58654 9.0953 8.44472C10.159 7.38099 10.159 6.00321 9.0953 4.93949L7.71245 3.55664C7.55543 3.39962 7.39334 3.23753 7.24137 3.07544C6.93746 2.76138 6.61833 2.4372 6.28908 2.13327C5.79774 1.647 5.21016 1.38867 4.59219 1.38867C3.97421 1.38867 3.3765 1.647 2.86997 2.13327C2.8649 2.13834 2.8649 2.13834 2.85983 2.14341L1.13761 3.88083C0.489239 4.52919 0.119467 5.31939 0.0384213 6.23622C-0.0831474 7.71531 0.352475 9.09309 0.686789 9.99473C1.50738 12.2083 2.7332 14.2598 4.56179 16.4582C6.78042 19.1073 9.44987 21.1994 12.4992 22.6734C13.6643 23.2254 15.2193 23.879 16.9568 23.9904C17.0631 23.9954 17.1746 24.0005 17.2758 24.0005C18.446 24.0005 19.4286 23.58 20.1986 22.7442C20.2037 22.7342 20.2137 22.7291 20.2188 22.719C20.4822 22.3998 20.7861 22.1111 21.1053 21.8021C21.3231 21.5945 21.546 21.3767 21.7638 21.1487C22.2653 20.627 22.5287 20.0192 22.5287 19.3961C22.5287 18.768 22.2602 18.1652 21.7485 17.6586L18.9677 14.8676ZM20.7812 20.2014C20.7761 20.2065 20.7761 20.2014 20.7812 20.2014C20.5836 20.4143 20.381 20.6067 20.1632 20.8194C19.8339 21.1335 19.4996 21.4628 19.1855 21.8325C18.674 22.3796 18.0711 22.6379 17.2809 22.6379C17.205 22.6379 17.1239 22.6379 17.048 22.6328C15.5435 22.5366 14.1455 21.9491 13.0969 21.4475C10.2299 20.0597 7.71245 18.0893 5.62046 15.5919C3.89316 13.5101 2.73827 11.5853 1.97339 9.51858C1.50231 8.25731 1.33009 7.27463 1.40607 6.34766C1.45672 5.75501 1.68467 5.26367 2.10509 4.84325L3.83238 3.11595C4.08059 2.88296 4.34399 2.75631 4.60232 2.75631C4.92144 2.75631 5.17977 2.94881 5.34186 3.1109C5.34693 3.11595 5.35199 3.12102 5.35706 3.12609C5.66604 3.41481 5.95983 3.71367 6.26882 4.03278C6.42585 4.19487 6.58794 4.35698 6.75003 4.52412L8.13288 5.90697C8.66981 6.4439 8.66981 6.94031 8.13288 7.47723C7.98599 7.62413 7.84415 7.77102 7.69725 7.91286C7.27176 8.34848 6.86654 8.7537 6.42585 9.1488C6.41571 9.15894 6.40559 9.164 6.40052 9.17414C5.9649 9.60975 6.04595 10.0352 6.13712 10.324C6.14219 10.3392 6.14726 10.3544 6.15231 10.3696C6.51195 11.2408 7.0185 12.0614 7.78844 13.039L7.79349 13.0441C9.19154 14.7663 10.6656 16.1087 12.2915 17.1369C12.4992 17.2686 12.712 17.375 12.9146 17.4764C13.0969 17.5674 13.2692 17.6535 13.416 17.7447C13.4363 17.7549 13.4566 17.7701 13.4768 17.7803C13.6491 17.8664 13.8111 17.9069 13.9783 17.9069C14.3987 17.9069 14.6621 17.6435 14.7482 17.5574L16.4807 15.825C16.6529 15.6528 16.9263 15.4451 17.2455 15.4451C17.5595 15.4451 17.8179 15.6426 17.975 15.8148C17.9799 15.8199 17.9799 15.8199 17.985 15.825L20.7761 18.6161C21.2978 19.1327 21.2978 19.6646 20.7812 20.2014Z" fill="#DFF39E"/>
<path d="M12.9701 5.70908C14.2972 5.93195 15.5028 6.56006 16.4652 7.52248C17.4276 8.48489 18.0507 9.69046 18.2786 11.0176C18.3344 11.3519 18.6231 11.5849 18.9524 11.5849C18.9929 11.5849 19.0282 11.5798 19.0687 11.5748C19.4436 11.514 19.6919 11.1594 19.6311 10.7846C19.3575 9.17885 18.5978 7.71496 17.4378 6.55499C16.2779 5.39503 14.8139 4.63522 13.2082 4.36169C12.8333 4.30091 12.4838 4.54912 12.418 4.91888C12.3521 5.28866 12.5953 5.6483 12.9701 5.70908Z" fill="#DFF39E"/>
<path d="M23.9713 10.5869C23.5206 7.94279 22.2744 5.53673 20.3598 3.62202C18.4451 1.70732 16.039 0.461243 13.3949 0.0104252C13.0251 -0.0554244 12.6756 0.197844 12.6097 0.567615C12.549 0.942452 12.7972 1.29196 13.172 1.35781C15.5325 1.75797 17.6853 2.87742 19.3973 4.58444C21.1094 6.29654 22.2238 8.44932 22.6239 10.8098C22.6797 11.1441 22.9685 11.3771 23.2977 11.3771C23.3382 11.3771 23.3736 11.372 23.4141 11.367C23.784 11.3112 24.0372 10.9567 23.9713 10.5869Z" fill="#DFF39E"/>
</g>
</g>
</g>
</g>
<defs>
<clipPath id="clip0_676_1680">
<rect width="24" height="24" fill="white"/>
</clipPath>
</defs>
</svg>
