<svg width="24" height="24" viewBox="0 0 24 24" fill="none" xmlns="http://www.w3.org/2000/svg">
<g clip-path="url(#clip0_892_1142)">
<path d="M12 17.1777V18.9092" stroke="#102B32" stroke-width="1.5" stroke-linecap="round" stroke-linejoin="round"/>
<path d="M12 8.58984V10.2013" stroke="#102B32" stroke-width="1.5" stroke-linecap="round" stroke-linejoin="round"/>
<path d="M11.9996 23.1266C17.9996 23.1266 22.2853 21.0009 22.2853 16.2695C22.2853 11.1266 19.7139 7.69807 14.571 5.12664L16.5939 2.52093C16.6966 2.34996 16.7524 2.15487 16.7554 1.95542C16.7585 1.75597 16.7088 1.55925 16.6113 1.38521C16.5139 1.21117 16.3721 1.06598 16.2005 0.964378C16.0288 0.862772 15.8333 0.808355 15.6339 0.806641H8.3653C8.16583 0.808355 7.97036 0.862772 7.7987 0.964378C7.62705 1.06598 7.4853 1.21117 7.38784 1.38521C7.29038 1.55925 7.24066 1.75597 7.24372 1.95542C7.24679 2.15487 7.30253 2.34996 7.4053 2.52093L9.42815 5.14378C4.2853 7.73235 1.71387 11.1609 1.71387 16.3038C1.71387 21.0009 5.99958 23.1266 11.9996 23.1266Z" stroke="#102B32" stroke-width="1.5" stroke-linecap="round" stroke-linejoin="round"/>
<path d="M10.2857 16.3897C10.4948 16.638 10.7581 16.8351 11.0553 16.9658C11.3524 17.0966 11.6756 17.1575 12 17.144C12.4957 17.1778 12.9853 17.0181 13.3658 16.6984C13.7462 16.3787 13.9879 15.9239 14.04 15.4297C13.9879 14.9355 13.7462 14.4808 13.3658 14.1611C12.9853 13.8414 12.4957 13.6816 12 13.7154C11.5042 13.7492 11.0146 13.5895 10.6342 13.2698C10.2537 12.9501 10.0121 12.4953 9.95996 12.0011C10.0079 11.5052 10.2484 11.0479 10.6298 10.7273C11.0113 10.4068 11.5032 10.2486 12 10.2869C12.3186 10.2674 12.6376 10.3188 12.9341 10.4373C13.2305 10.5559 13.4969 10.7387 13.7142 10.9726" stroke="#102B32" stroke-width="1.5" stroke-linecap="round" stroke-linejoin="round"/>
</g>
<defs>
<clipPath id="clip0_892_1142">
<rect width="24" height="24" fill="white"/>
</clipPath>
</defs>
</svg>
