<svg width="28" height="28" viewBox="0 0 28 28" fill="none" xmlns="http://www.w3.org/2000/svg">
<g clip-path="url(#clip0_335_16202)">
<path d="M17.6196 24.14C16.7161 25.0435 15.6435 25.7602 14.463 26.2492C13.2825 26.7381 12.0173 26.9898 10.7396 26.9898C8.15905 26.9898 5.68424 25.9647 3.85955 24.14C2.03487 22.3153 1.00977 19.8405 1.00977 17.26C1.00977 14.6795 2.03487 12.2047 3.85955 10.38L13.2396 1L17.6196 5.38L9.01956 14C8.46675 14.6797 8.18562 15.5402 8.23053 16.4152C8.27545 17.2901 8.64322 18.1173 9.26272 18.7368C9.88222 19.3563 10.7094 19.7241 11.5844 19.769C12.4593 19.8139 13.3199 19.5328 13.9996 18.98L22.5996 10.38L26.9996 14.76L17.6196 24.14Z" stroke="#102B32" stroke-width="1.5" stroke-linecap="round" stroke-linejoin="round"/>
<path d="M18.3789 14.6201L22.7589 19.0001" stroke="#102B32" stroke-width="1.5" stroke-linecap="round" stroke-linejoin="round"/>
<path d="M9 5.23999L13.38 9.61999" stroke="#102B32" stroke-width="1.5" stroke-linecap="round" stroke-linejoin="round"/>
</g>
<defs>
<clipPath id="clip0_335_16202">
<rect width="28" height="28" fill="white"/>
</clipPath>
</defs>
</svg>
