<svg width="43" height="40" viewBox="0 0 43 40" fill="none" xmlns="http://www.w3.org/2000/svg">
<path d="M38.3849 8.56973C38.2322 8.36315 38.0233 8.20451 37.7829 8.11258L20.5829 1.62687C20.4202 1.55607 20.2445 1.51953 20.0669 1.51953C19.8893 1.51953 19.7137 1.55607 19.5509 1.62687L2.35093 8.22687C2.12369 8.28686 1.91615 8.40505 1.74893 8.56973C1.54869 8.81116 1.4374 9.11365 1.43359 9.42687V30.3412C1.43731 30.6265 1.52668 30.9042 1.69018 31.1384C1.85367 31.3727 2.08381 31.5527 2.35093 31.6554L19.5509 38.2554H20.0669H20.5829L37.7829 31.6554C38.05 31.5527 38.2802 31.3727 38.4437 31.1384C38.6072 30.9042 38.6965 30.6265 38.7003 30.3412V9.54115C38.7245 9.18896 38.6116 8.84102 38.3849 8.56973V8.56973Z" stroke="#DFF39E" stroke-width="1.5" stroke-linecap="round" stroke-linejoin="round"/>
<path d="M20.0674 38.4577V15.7148" stroke="#DFF39E" stroke-width="1.5" stroke-linecap="round" stroke-linejoin="round"/>
<path d="M20.0674 15.7148V38.4577" stroke="#DFF39E" stroke-width="1.5" stroke-linecap="round" stroke-linejoin="round"/>
<path d="M1.74902 8.6875L20.067 15.7161L38.385 8.6875" stroke="#DFF39E" stroke-width="1.5" stroke-linecap="round" stroke-linejoin="round"/>
</svg>
