<svg width="50" height="50" viewBox="0 0 50 50" fill="none" xmlns="http://www.w3.org/2000/svg">
<path d="M30.3574 33.9284C31.3046 33.9284 32.213 33.5521 32.8828 32.8823C33.5526 32.2125 33.9289 31.3041 33.9289 30.3569" stroke="#102B32" stroke-width="1.5" stroke-linecap="round" stroke-linejoin="round"/>
<path d="M16.0723 33.9287H21.4294" stroke="#102B32" stroke-width="1.5" stroke-linecap="round" stroke-linejoin="round"/>
<path d="M33.9287 16.0713V21.4284" stroke="#102B32" stroke-width="1.5" stroke-linecap="round" stroke-linejoin="round"/>
<path d="M19.6437 16.0713C18.6965 16.0713 17.7881 16.4476 17.1183 17.1173C16.4485 17.7871 16.0723 18.6955 16.0723 19.6427" stroke="#102B32" stroke-width="1.5" stroke-linecap="round" stroke-linejoin="round"/>
<path d="M1.78613 5.35707C1.78613 4.40987 2.16241 3.50146 2.83218 2.83169C3.50195 2.16192 4.41036 1.78564 5.35756 1.78564H30.3576C31.3048 1.78564 32.2132 2.16192 32.8829 2.83169C33.5527 3.50146 33.929 4.40987 33.929 5.35707V16.0714H44.6433C45.5905 16.0714 46.4989 16.4476 47.1687 17.1174C47.8384 17.7872 48.2147 18.6956 48.2147 19.6428V44.6428C48.2147 45.59 47.8384 46.4984 47.1687 47.1682C46.4989 47.8379 45.5905 48.2142 44.6433 48.2142H19.6433C18.6961 48.2142 17.7877 47.8379 17.1179 47.1682C16.4481 46.4984 16.0718 45.59 16.0718 44.6428V33.9285H5.35756C4.41036 33.9285 3.50195 33.5522 2.83218 32.8825C2.16241 32.2127 1.78613 31.3043 1.78613 30.3571V5.35707Z" stroke="#102B32" stroke-width="1.5" stroke-linecap="round" stroke-linejoin="round"/>
<path d="M28.5723 16.0713H33.9294" stroke="#102B32" stroke-width="1.5" stroke-linecap="round" stroke-linejoin="round"/>
<path d="M16.0723 28.5713V33.9284" stroke="#102B32" stroke-width="1.5" stroke-linecap="round" stroke-linejoin="round"/>
</svg>
