<svg width="40" height="40" viewBox="0 0 40 40" fill="none" xmlns="http://www.w3.org/2000/svg">
<path d="M14.9414 6.42773L16.1699 3.25631C16.3771 2.71935 16.7417 2.25748 17.2158 1.9312C17.6899 1.60492 18.2515 1.42943 18.8271 1.42773H21.1699C21.7455 1.42943 22.3071 1.60492 22.7812 1.9312C23.2554 2.25748 23.6199 2.71935 23.8271 3.25631L25.0557 6.42773L29.2271 8.82773L32.5985 8.31345C33.1599 8.23725 33.7313 8.32966 34.24 8.57894C34.7487 8.82822 35.1719 9.22312 35.4557 9.71345L36.5985 11.7134C36.8914 12.2116 37.0263 12.7868 36.9855 13.3632C36.9447 13.9396 36.7301 14.4901 36.3699 14.942L34.2842 17.5992V22.3992L36.4271 25.0563C36.7872 25.5082 37.0018 26.0587 37.0426 26.6351C37.0834 27.2115 36.9485 27.7867 36.6557 28.2849L35.5128 30.2849C35.229 30.7752 34.8059 31.1701 34.2971 31.4194C33.7884 31.6687 33.217 31.7611 32.6557 31.6849L29.2842 31.1706L25.1128 33.5706L23.8842 36.742C23.677 37.279 23.3125 37.7408 22.8384 38.0671C22.3642 38.3934 21.8026 38.5689 21.2271 38.5706H18.8271C18.2515 38.5689 17.6899 38.3934 17.2158 38.0671C16.7417 37.7408 16.3771 37.279 16.1699 36.742L14.9414 33.5706L10.7699 31.1706L7.39852 31.6849C6.83713 31.7611 6.26577 31.6687 5.75704 31.4194C5.2483 31.1701 4.82515 30.7752 4.54137 30.2849L3.39852 28.2849C3.10566 27.7867 2.97074 27.2115 3.01154 26.6351C3.05235 26.0587 3.26697 25.5082 3.62709 25.0563L5.7128 22.3992V17.5992L3.56994 14.942C3.20983 14.4901 2.99521 13.9396 2.9544 13.3632C2.91359 12.7868 3.04852 12.2116 3.34137 11.7134L4.48423 9.71345C4.76801 9.22312 5.19116 8.82822 5.69989 8.57894C6.20863 8.32966 6.77999 8.23725 7.34137 8.31345L10.7128 8.82773L14.9414 6.42773ZM14.2842 19.9992C14.2842 21.1293 14.6194 22.2341 15.2473 23.1738C15.8752 24.1136 16.7676 24.846 17.8118 25.2785C18.8559 25.711 20.0049 25.8241 21.1133 25.6037C22.2218 25.3832 23.24 24.8389 24.0391 24.0398C24.8383 23.2406 25.3825 22.2224 25.603 21.114C25.8235 20.0055 25.7103 18.8565 25.2778 17.8124C24.8453 16.7683 24.1129 15.8758 23.1732 15.2479C22.2335 14.62 21.1287 14.2849 19.9985 14.2849C18.483 14.2849 17.0295 14.8869 15.9579 15.9586C14.8863 17.0302 14.2842 18.4836 14.2842 19.9992V19.9992Z" stroke="#102B32" stroke-width="1.5" stroke-linecap="round" stroke-linejoin="round"/>
</svg>
