<svg width="40" height="40" viewBox="0 0 40 40" fill="none" xmlns="http://www.w3.org/2000/svg">
<path d="M20 38.2546C21.876 38.2546 23.7337 37.8851 25.4669 37.1671C27.2001 36.4492 28.775 35.3969 30.1015 34.0704C31.4281 32.7438 32.4804 31.169 33.1983 29.4358C33.9162 27.7025 34.2857 25.8449 34.2857 23.9689V16.026C34.2859 12.5165 32.9943 9.12978 30.6571 6.51172" stroke="#102B32" stroke-width="1.5" stroke-linecap="round" stroke-linejoin="round"/>
<path d="M5.71387 19.1992V23.9706C5.71291 26.7829 6.54202 29.5329 8.09728 31.876C9.65255 34.219 11.8648 36.0509 14.4567 37.1421" stroke="#102B32" stroke-width="1.5" stroke-linecap="round" stroke-linejoin="round"/>
<path d="M27.1429 3.65608C23.8617 1.76176 19.9625 1.24841 16.3029 2.22895C12.6433 3.20949 9.52303 5.60361 7.62857 8.88465C6.84851 10.2319 6.29813 11.6996 6 13.2275" stroke="#102B32" stroke-width="1.5" stroke-linecap="round" stroke-linejoin="round"/>
<path d="M18.5137 10.0286C19.5645 9.81047 20.6509 9.83095 21.6928 10.0886C22.7347 10.3462 23.7055 10.8344 24.5336 11.5171C25.3616 12.1999 26.0259 13.0598 26.4774 14.0335C26.9289 15.0072 27.1561 16.0697 27.1422 17.1429V21.7429" stroke="#102B32" stroke-width="1.5" stroke-linecap="round" stroke-linejoin="round"/>
<path d="M25.3135 27.7423C24.3414 28.8252 23.0617 29.5853 21.6457 29.9209C20.2297 30.2565 18.745 30.1516 17.3903 29.6203C16.0356 29.089 14.8754 28.1565 14.0652 26.9478C13.2549 25.739 12.8332 24.3116 12.8564 22.8566V17.1423C12.8509 16.161 13.0454 15.1889 13.4278 14.2852" stroke="#102B32" stroke-width="1.5" stroke-linecap="round" stroke-linejoin="round"/>
<path d="M20 17.457V22.2285" stroke="#102B32" stroke-width="1.5" stroke-linecap="round" stroke-linejoin="round"/>
</svg>
