<svg width="50" height="50" viewBox="0 0 50 50" fill="none" xmlns="http://www.w3.org/2000/svg">
<path d="M44.6434 5.35718L32.4648 17.5357" stroke="#102B32" stroke-width="1.5" stroke-linecap="round" stroke-linejoin="round"/>
<path d="M5.35742 5.35718L17.536 17.5357" stroke="#102B32" stroke-width="1.5" stroke-linecap="round" stroke-linejoin="round"/>
<path d="M5.35742 44.6429L17.536 32.4644" stroke="#102B32" stroke-width="1.5" stroke-linecap="round" stroke-linejoin="round"/>
<path d="M44.6434 44.6429L32.4648 32.4644" stroke="#102B32" stroke-width="1.5" stroke-linecap="round" stroke-linejoin="round"/>
<path d="M25.0004 48.2143C37.8213 48.2143 48.2147 37.8209 48.2147 25C48.2147 12.1792 37.8213 1.78577 25.0004 1.78577C12.1795 1.78577 1.78613 12.1792 1.78613 25C1.78613 37.8209 12.1795 48.2143 25.0004 48.2143Z" stroke="#102B32" stroke-width="1.5" stroke-linecap="round" stroke-linejoin="round"/>
<path d="M25.0006 35.5358C30.8193 35.5358 35.5363 30.8188 35.5363 25.0001C35.5363 19.1814 30.8193 14.4644 25.0006 14.4644C19.1818 14.4644 14.4648 19.1814 14.4648 25.0001C14.4648 30.8188 19.1818 35.5358 25.0006 35.5358Z" stroke="#102B32" stroke-width="1.5" stroke-linecap="round" stroke-linejoin="round"/>
</svg>
