<svg width="40" height="40" viewBox="0 0 40 40" fill="none" xmlns="http://www.w3.org/2000/svg">
<g clip-path="url(#clip0_892_1586)">
<path d="M19.9992 15.7134C30.2559 15.7134 38.5706 12.5155 38.5706 8.57059C38.5706 4.6257 30.2559 1.42773 19.9992 1.42773C9.74245 1.42773 1.42773 4.6257 1.42773 8.57059C1.42773 12.5155 9.74245 15.7134 19.9992 15.7134Z" stroke="#102B32" stroke-width="1.5" stroke-linecap="round" stroke-linejoin="round"/>
<path d="M1.42773 8.57031V31.4275C1.42773 35.3703 9.74202 38.5703 19.9992 38.5703C30.2563 38.5703 38.5706 35.3703 38.5706 31.4275V8.57031" stroke="#102B32" stroke-width="1.5" stroke-linecap="round" stroke-linejoin="round"/>
<path d="M38.5706 20C38.5706 23.9429 30.2563 27.1429 19.9992 27.1429C9.74202 27.1429 1.42773 23.9429 1.42773 20" stroke="#102B32" stroke-width="1.5" stroke-linecap="round" stroke-linejoin="round"/>
</g>
<defs>
<clipPath id="clip0_892_1586">
<rect width="40" height="40" fill="white"/>
</clipPath>
</defs>
</svg>
