<svg width="40" height="40" viewBox="0 0 40 40" fill="none" xmlns="http://www.w3.org/2000/svg">
<g opacity="0.1" clip-path="url(#clip0_604_587)">
<path d="M10.8335 35C5.77084 35 1.66679 30.8959 1.66679 25.8333C1.66679 22.094 3.61336 18.476 6.51867 17.7778C7.63934 17.5085 8.53183 16.0704 8.34006 14.4286C8.08339 12.2311 6.09618 10.011 2.16153 8.26145C1.28546 7.8719 1.65229 6.55401 2.60364 6.67312C12.8579 7.95693 19.9659 14.6421 20 24.1003C20.0001 30.6049 16.1571 35 10.8335 35Z" fill="#102B32"/>
<path d="M30.8335 35C25.7708 35 21.6668 30.8959 21.6668 25.8333C21.6668 22.094 23.6134 18.476 26.5187 17.7778C27.6393 17.5085 28.5318 16.0704 28.3401 14.4286C28.0834 12.2311 26.0962 10.011 22.1615 8.26145C21.2855 7.8719 21.6523 6.55401 22.6036 6.67312C32.8579 7.95693 39.9659 14.6421 40 24.1003C40.0001 30.6049 36.1571 35 30.8335 35Z" fill="#102B32"/>
</g>
<defs>
<clipPath id="clip0_604_587">
<rect width="40" height="40" fill="white" transform="translate(40 40) rotate(180)"/>
</clipPath>
</defs>
</svg>
