<svg width="30" height="30" viewBox="0 0 30 30" fill="none" xmlns="http://www.w3.org/2000/svg">
<g clip-path="url(#clip0_856_97)">
<path d="M8.12509 26.25C4.32813 26.25 1.25009 23.172 1.25009 19.375C1.25009 16.5705 2.71002 13.857 4.889 13.3334C5.72951 13.1314 6.39887 12.0528 6.25505 10.8215C6.06254 9.17335 4.57214 7.50826 1.62115 6.19609C0.964095 5.90392 1.23922 4.91551 1.95273 5.00484C9.64344 5.9677 14.9744 10.9815 15 18.0752C15.0001 22.9537 12.1179 26.25 8.12509 26.25Z" fill="#DFF39E"/>
<path d="M23.1251 26.25C19.3281 26.25 16.2501 23.172 16.2501 19.375C16.2501 16.5705 17.71 13.857 19.889 13.3334C20.7295 13.1314 21.3989 12.0528 21.255 10.8215C21.0625 9.17335 19.5721 7.50826 16.6212 6.19609C15.9641 5.90392 16.2392 4.91551 16.9527 5.00484C24.6434 5.9677 29.9744 10.9815 30 18.0752C30.0001 22.9537 27.1179 26.25 23.1251 26.25Z" fill="#DFF39E"/>
</g>
<defs>
<clipPath id="clip0_856_97">
<rect width="30" height="30" fill="white" transform="translate(30 30) rotate(180)"/>
</clipPath>
</defs>
</svg>
